<svg xmlns="http://www.w3.org/2000/svg" viewBox="0 0 64 64" width="32" height="32">
  <!-- Flame icon in 30Shine style -->
  <defs>
    <linearGradient id="flame" x1="0%" y1="0%" x2="0%" y2="100%">
      <stop offset="0%" stop-color="#225CCC"/>
      <stop offset="100%" stop-color="#15397F"/>
    </linearGradient>
  </defs>
  <path fill="url(#flame)" d="M32 4C28 12 20 18 20 30c0 8 5 14 12 14s12-6 12-14c0-5-3-9-6-12 2 5 1 9-2 11 1-8-2-16-4-25zm0 34c-4 0-7-3-7-7 0-3 2-5 4-7-1 3 0 6 3 7 3-1 4-4 3-7 2 2 4 4 4 7 0 4-3 7-7 7z"/>
</svg>
